<svg xmlns="http://www.w3.org/2000/svg" viewBox="0 0 800 600" role="img" aria-labelledby="title desc">
  <title id="title">City Runner Knit Sneakers</title>
  <desc id="desc">Stylized graphite knit sneakers.</desc>
  <rect width="800" height="600" fill="#f8fafc"/>
  <path d="M185 352c80 8 122-34 190-78 55 64 124 87 238 82 20 24 10 60-28 70H223c-56 0-74-28-38-74z" fill="#475569"/>
  <path d="M185 405h420c-6 27-22 44-58 44H228c-42 0-61-17-43-44z" fill="#e2e8f0"/>
  <path d="M345 292c48 38 100 53 168 50" stroke="#cbd5e1" stroke-width="10" stroke-linecap="round" fill="none"/>
  <path d="M375 300 335 355M420 322 380 372" stroke="#94a3b8" stroke-width="8" stroke-linecap="round"/>
</svg>
